<svg xmlns="http://www.w3.org/2000/svg" width="256" height="256"><g fill="none"><g fill="#c7cfe2"><path d="M89.521 206.392c-4.723 0-8.551-3.796-8.551-8.477V66.535c0-21.032 17.261-38.143 38.48-38.143h8.551c4.722 0 8.551 3.795 8.551 8.476 0 4.68-3.829 8.476-8.551 8.476h-8.551c-11.787 0-21.378 9.506-21.378 21.19v131.381c0 4.681-3.829 8.477-8.551 8.477z"/><path d="M157.93 62.596h-55.583c-4.722 0-8.55-3.828-8.55-8.551s3.827-8.551 8.55-8.551h55.583zm-4.276 34.205H98.073c-4.723 0-8.551-3.829-8.551-8.552s3.828-8.55 8.551-8.55h55.583zm0 34.204H98.073c-4.723 0-8.551-3.828-8.551-8.551s3.828-8.551 8.551-8.551h55.583zm0 34.205H98.073c-4.723 0-8.551-3.829-8.551-8.552s3.828-8.55 8.551-8.55h55.583zm0 34.204H98.073c-4.723 0-8.551-3.828-8.551-8.551s3.828-8.551 8.551-8.551h55.583z"/><path d="M157.93 206.392c-4.723 0-8.551-3.796-8.551-8.477V66.535c0-21.032 17.261-38.143 38.48-38.143h8.551c4.723 0 8.551 3.795 8.551 8.476 0 4.68-3.829 8.476-8.551 8.476h-8.551c-11.787 0-21.378 9.506-21.378 21.19v131.381c0 4.681-3.829 8.477-8.551 8.477z"/></g><path fill="#000" stroke="#000" stroke-width=".5" d="M254.899 191.13c-8.992 0-13.7 2.537-17.853 4.774-3.762 2.026-7.011 3.777-13.891 3.777s-10.13-1.75-13.891-3.777c-4.153-2.238-8.861-4.774-17.853-4.774-8.987 0-13.692 2.537-17.842 4.774-3.759 2.027-7.005 3.777-13.88 3.777-6.876 0-10.124-1.75-13.884-3.777-4.152-2.237-8.857-4.774-17.847-4.774-8.986 0-13.69 2.537-17.842 4.774-3.758 2.027-7.005 3.777-13.878 3.777-6.87 0-10.116-1.75-13.874-3.776-4.15-2.239-8.853-4.775-17.838-4.775-8.985 0-13.688 2.537-17.838 4.775-3.757 2.026-7.003 3.776-13.873 3.776-6.87 0-10.116-1.75-13.874-3.776-4.15-2.239-8.853-4.775-17.838-4.775-2.265 0-4.102 1.795-4.102 4.009s1.837 4.008 4.103 4.008c6.87 0 10.116 1.75 13.873 3.777 4.15 2.238 8.853 4.774 17.838 4.774s13.689-2.537 17.838-4.774c3.758-2.027 7.003-3.777 13.873-3.777 6.871 0 10.117 1.75 13.874 3.777 4.15 2.238 8.853 4.774 17.839 4.774 8.986 0 13.69-2.537 17.842-4.774 3.758-2.027 7.004-3.777 13.878-3.777 6.876 0 10.124 1.75 13.884 3.777 4.152 2.237 8.858 4.774 17.847 4.774 8.988 0 13.692-2.537 17.843-4.774 3.758-2.026 7.005-3.777 13.879-3.777 6.88 0 10.128 1.75 13.89 3.778 4.154 2.237 8.861 4.773 17.853 4.773s13.699-2.536 17.853-4.773c3.762-2.027 7.011-3.778 13.891-3.778a4.12 4.12 0 0 0 3.553-2.004 3.93 3.93 0 0 0 0-4.009 4.121 4.121 0 0 0-3.553-2.004zm-33.923 25.654c-6.722 0-9.897-1.751-13.573-3.778-4.058-2.237-8.658-4.773-17.444-4.773-8.78 0-13.378 2.536-17.434 4.774-3.672 2.026-6.844 3.777-13.56 3.777-6.72 0-9.893-1.751-13.567-3.777-4.057-2.238-8.655-4.774-17.439-4.774-8.78 0-13.377 2.536-17.433 4.774-3.672 2.026-6.845 3.777-13.56 3.777-6.714 0-9.885-1.75-13.557-3.777-4.055-2.239-8.65-4.774-17.43-4.774s-13.374 2.536-17.429 4.774c-3.672 2.026-6.843 3.776-13.556 3.776a4.009 4.009 0 0 0 0 8.018c8.78 0 13.375-2.537 17.43-4.775 3.671-2.026 6.842-3.776 13.555-3.776 6.714 0 9.885 1.75 13.556 3.776 4.055 2.239 8.651 4.774 17.43 4.774 8.781 0 13.378-2.536 17.434-4.774 3.672-2.026 6.845-3.776 13.56-3.776 6.72 0 9.893 1.75 13.567 3.777 4.057 2.238 8.655 4.774 17.439 4.774 8.78 0 13.378-2.537 17.434-4.774 3.672-2.027 6.844-3.777 13.56-3.777 6.723 0 9.898 1.75 13.574 3.777 4.058 2.238 8.658 4.774 17.444 4.774a4.009 4.009 0 0 0 0-8.017zM84.978 202.262V74.888c0-22.594 15.464-40.976 34.472-40.976h8.551c2.505 0 4.543 2.422 4.543 5.4s-2.038 5.4-4.543 5.4h-12.826c-2.214 0-4.009 2.133-4.009 4.765 0 2.631 1.795 4.765 4.009 4.765h40.711c1.337 0 2.585-.792 3.33-2.11 6.438-11.409 17.146-18.22 28.643-18.22h8.551c2.505 0 4.543 2.423 4.543 5.4s-2.038 5.4-4.543 5.4h-8.55c-13.998 0-25.387 13.538-25.387 30.176v127.374c0 2.631 8.017 3.111 8.017.48V74.888c0-11.384 7.792-20.646 17.37-20.646h8.551c6.925 0 12.56-6.697 12.56-14.93 0-8.232-5.635-14.929-12.56-14.929h-8.551c-13.45 0-26.02 7.554-34.045 20.33h-14.104c.564-1.722.852-3.553.85-5.4 0-8.233-5.634-14.93-12.559-14.93h-8.552c-23.428 0-42.489 22.657-42.489 50.505v123.027c0 1.301 8.017 5.127 8.017 4.347z"/><path fill="#000" stroke="#000" stroke-width=".5" d="M153.387 131.005a4.009 4.009 0 0 0-4.008-4.008H98.072a4.009 4.009 0 0 0-4.009 4.008v17.102a4.009 4.009 0 0 0 4.009 4.009h51.307a4.009 4.009 0 0 0 4.008-4.009zm-8.017 13.094h-43.29v-9.085h43.29zm4.009 42.221a4.009 4.009 0 0 0 4.008-4.008v-17.103a4.009 4.009 0 0 0-4.008-4.008H98.072a4.009 4.009 0 0 0-4.009 4.008v17.102a4.009 4.009 0 0 0 8.017 0v-13.094h43.29v13.094a4.008 4.008 0 0 0 4.009 4.009zm4.008-89.52a4.009 4.009 0 0 0-4.008-4.008H98.072a4.009 4.009 0 0 0-4.009 4.008v17.103a4.009 4.009 0 0 0 4.009 4.008h51.307a4.009 4.009 0 0 0 4.008-4.008zm-8.017 13.095h-43.29v-9.086h43.29zm8.017-47.299a4.009 4.009 0 0 0-4.008-4.008h-47.032c-4.567 0-8.284 3.715-8.284 8.283v12.827a4.009 4.009 0 0 0 4.009 4.008h51.307a4.009 4.009 0 0 0 4.009-4.008zM145.37 75.69h-43.29V66.87c0-.147.12-.267.268-.267h43.023z"/></g></svg>