<?xml version="1.0" encoding="UTF-8"?>
<!DOCTYPE svg PUBLIC "-//W3C//DTD SVG 1.1//EN" "http://www.w3.org/Graphics/SVG/1.1/DTD/svg11.dtd">
<svg xmlns="http://www.w3.org/2000/svg" version="1.1" width="1024px" height="1024px" style="shape-rendering:geometricPrecision; text-rendering:geometricPrecision; image-rendering:optimizeQuality; fill-rule:evenodd; clip-rule:evenodd" xmlns:xlink="http://www.w3.org/1999/xlink">
<g><path style="opacity:0.999" fill="#e23b2e" d="M 480.5,-0.5 C 501.167,-0.5 521.833,-0.5 542.5,-0.5C 613.728,4.14011 681.061,22.8068 744.5,55.5C 744.5,122.167 744.5,188.833 744.5,255.5C 670.167,255.5 595.833,255.5 521.5,255.5C 489.551,254.215 458.551,258.881 428.5,269.5C 429.164,181.494 428.497,93.827 426.5,6.5C 444.395,3.28962 462.395,0.956286 480.5,-0.5 Z"/></g>
<g><path style="opacity:0.999" fill="#dc3428" d="M 426.5,6.5 C 428.497,93.827 429.164,181.494 428.5,269.5C 358.716,294.783 308.216,341.116 277,408.5C 248.16,478.679 248.66,548.679 278.5,618.5C 273.5,610.5 268.5,602.5 263.5,594.5C 229.749,535.329 195.749,476.329 161.5,417.5C 130.657,363.137 99.3233,309.137 67.5,255.5C 138.673,135.194 241.673,55.6943 376.5,17C 392.981,12.5374 409.647,9.03737 426.5,6.5 Z"/></g>
<g><path style="opacity:0.994" fill="#e74032" d="M 744.5,55.5 C 834.247,101.578 904.581,168.245 955.5,255.5C 885.167,255.5 814.833,255.5 744.5,255.5C 744.5,188.833 744.5,122.167 744.5,55.5 Z"/></g>
<g><path style="opacity:1" fill="#fefefe" d="M 521.5,255.5 C 566.172,258.088 607.839,270.754 646.5,293.5C 717.288,340.019 757.288,405.686 766.5,490.5C 769.289,529.644 763.956,567.644 750.5,604.5C 743.221,621.059 734.887,637.059 725.5,652.5C 724.094,652.973 723.427,653.973 723.5,655.5C 666.842,732.991 590.175,770.158 493.5,767C 480.39,765.865 467.39,764.032 454.5,761.5C 435.269,756.643 416.602,749.977 398.5,741.5C 345.002,713.669 305.002,672.669 278.5,618.5C 248.66,548.679 248.16,478.679 277,408.5C 308.216,341.116 358.716,294.783 428.5,269.5C 458.551,258.881 489.551,254.215 521.5,255.5 Z"/></g>
<g><path style="opacity:0.999" fill="#fbbd09" d="M 521.5,255.5 C 595.833,255.5 670.167,255.5 744.5,255.5C 814.833,255.5 885.167,255.5 955.5,255.5C 995.373,325.332 1018.04,400.332 1023.5,480.5C 1023.5,490.167 1023.5,499.833 1023.5,509.5C 899.392,438.276 775.392,366.776 651.5,295C 649.975,293.991 648.308,293.491 646.5,293.5C 607.839,270.754 566.172,258.088 521.5,255.5 Z"/></g>
<g><path style="opacity:0.999" fill="#fbbf0f" d="M 646.5,293.5 C 648.308,293.491 649.975,293.991 651.5,295C 775.392,366.776 899.392,438.276 1023.5,509.5C 1023.5,520.5 1023.5,531.5 1023.5,542.5C 1021.14,571.659 1016.81,600.659 1010.5,629.5C 1009.45,629.649 1008.45,629.483 1007.5,629C 927.438,582.304 847.105,536.138 766.5,490.5C 757.288,405.686 717.288,340.019 646.5,293.5 Z"/></g>
<g><path style="opacity:1" fill="#1a73e8" d="M 498.5,308.5 C 581.479,307.226 644.646,341.559 688,411.5C 724.117,480.371 723.117,548.705 685,616.5C 641.18,683.333 579.013,715.833 498.5,714C 426.652,707.018 372.152,672.851 335,611.5C 298.775,542.583 299.775,474.249 338,406.5C 375.624,348.082 429.124,315.415 498.5,308.5 Z"/></g>
<g><path style="opacity:0.998" fill="#31a44f" d="M 67.5,255.5 C 99.3233,309.137 130.657,363.137 161.5,417.5C 107.863,449.323 53.8629,480.657 -0.5,511.5C -0.5,501.167 -0.5,490.833 -0.5,480.5C 4.96005,400.333 27.6267,325.333 67.5,255.5 Z"/></g>
<g><path style="opacity:0.999" fill="#2c9f4c" d="M 161.5,417.5 C 195.749,476.329 229.749,535.329 263.5,594.5C 261.669,596.776 259.336,598.609 256.5,600C 185.942,640.776 115.275,681.276 44.5,721.5C 18.6807,664.556 3.68073,604.89 -0.5,542.5C -0.5,532.167 -0.5,521.833 -0.5,511.5C 53.8629,480.657 107.863,449.323 161.5,417.5 Z"/></g>
<g><path style="opacity:0.999" fill="#fbc015" d="M 766.5,490.5 C 847.105,536.138 927.438,582.304 1007.5,629C 1008.45,629.483 1009.45,629.649 1010.5,629.5C 1001.91,665.284 989.575,699.617 973.5,732.5C 899.031,690.098 824.698,647.431 750.5,604.5C 763.956,567.644 769.289,529.644 766.5,490.5 Z"/></g>
<g><path style="opacity:0.999" fill="#289947" d="M 263.5,594.5 C 268.5,602.5 273.5,610.5 278.5,618.5C 305.002,672.669 345.002,713.669 398.5,741.5C 396.345,741.372 394.345,741.872 392.5,743C 313.772,789.029 234.772,834.529 155.5,879.5C 107.69,834.589 70.6896,781.922 44.5,721.5C 115.275,681.276 185.942,640.776 256.5,600C 259.336,598.609 261.669,596.776 263.5,594.5 Z"/></g>
<g><path style="opacity:0.999" fill="#fbc21c" d="M 750.5,604.5 C 824.698,647.431 899.031,690.098 973.5,732.5C 954.639,773.597 930.306,810.931 900.5,844.5C 829.466,802.983 758.132,761.983 686.5,721.5C 698.833,699.5 711.167,677.5 723.5,655.5C 724.906,655.027 725.573,654.027 725.5,652.5C 734.887,637.059 743.221,621.059 750.5,604.5 Z"/></g>
<g><path style="opacity:0.839" fill="#5ea551" d="M 725.5,652.5 C 725.573,654.027 724.906,655.027 723.5,655.5C 723.427,653.973 724.094,652.973 725.5,652.5 Z"/></g>
<g><path style="opacity:0.999" fill="#229241" d="M 723.5,655.5 C 711.167,677.5 698.833,699.5 686.5,721.5C 667.929,752.968 649.596,784.634 631.5,816.5C 612.664,848.166 594.331,880.166 576.5,912.5C 554.596,949.3 532.929,986.3 511.5,1023.5C 501.167,1023.5 490.833,1023.5 480.5,1023.5C 372.821,1015.95 276.821,978.955 192.5,912.5C 279.85,862.139 367.184,811.806 454.5,761.5C 467.39,764.032 480.39,765.865 493.5,767C 590.175,770.158 666.842,732.991 723.5,655.5 Z"/></g>
<g><path style="opacity:0.998" fill="#fbc422" d="M 686.5,721.5 C 758.132,761.983 829.466,802.983 900.5,844.5C 875.639,874.699 847.306,901.032 815.5,923.5C 754.167,887.833 692.833,852.167 631.5,816.5C 649.596,784.634 667.929,752.968 686.5,721.5 Z"/></g>
<g><path style="opacity:1" fill="#249644" d="M 398.5,741.5 C 416.602,749.977 435.269,756.643 454.5,761.5C 367.184,811.806 279.85,862.139 192.5,912.5C 179.248,902.584 166.915,891.584 155.5,879.5C 234.772,834.529 313.772,789.029 392.5,743C 394.345,741.872 396.345,741.372 398.5,741.5 Z"/></g>
<g><path style="opacity:0.998" fill="#fbc528" d="M 631.5,816.5 C 692.833,852.167 754.167,887.833 815.5,923.5C 781.092,949.882 743.425,970.882 702.5,986.5C 660.5,961.833 618.5,937.167 576.5,912.5C 594.331,880.166 612.664,848.166 631.5,816.5 Z"/></g>
<g><path style="opacity:0.997" fill="#fbc72d" d="M 576.5,912.5 C 618.5,937.167 660.5,961.833 702.5,986.5C 651.164,1007.5 597.83,1019.83 542.5,1023.5C 532.167,1023.5 521.833,1023.5 511.5,1023.5C 532.929,986.3 554.596,949.3 576.5,912.5 Z"/></g>
</svg>
