<svg width="692" height="927" viewBox="0 0 692 927" fill="none" xmlns="http://www.w3.org/2000/svg">
<path d="M689.43 919.577C689.806 918.591 690.365 918.036 690.673 918.344C690.981 918.652 690.673 919.459 689.99 920.137C689.002 921.117 688.888 921.002 689.43 919.577ZM251.308 887.777C250.349 886.225 257.84 878.915 264.576 874.83L270.281 871.37L285.574 871.031C293.984 870.844 300.866 870.324 300.866 869.877C300.866 869.429 295.544 861.482 289.039 852.216C265.203 818.265 254.66 803.355 254.02 802.693C253.66 802.321 247.966 800.811 241.366 799.339C234.766 797.866 216.091 792.858 199.866 788.211C183.641 783.563 168.288 779.505 165.748 779.192L161.13 778.623L136.748 795.418C99.1525 821.314 46.5452 857.973 44.7872 859.499C43.9189 860.253 42.7454 860.87 42.1795 860.87C41.5209 860.87 40.8889 851.851 40.4237 835.814C39.8379 815.618 39.9558 810.4 41.0314 808.913C42.2351 807.248 66.6671 787.058 99.6534 760.467L111.939 750.563L126.653 751.227C134.745 751.591 153.291 752.867 167.866 754.061C201.228 756.794 232.244 756.973 249.866 754.534C309.134 746.33 357.388 725.328 395.65 691.083C427.286 662.769 440.162 626.393 430.823 591.711C430.254 589.599 429.439 587.87 429.011 587.87C428.583 587.87 427.714 592.258 427.078 597.62C425.066 614.595 419.946 630.3 412.217 643.201C383.385 691.324 320.097 724.363 244.366 730.826C222.256 732.713 195.092 731.841 201.894 729.463C202.704 729.18 208.766 727.764 215.366 726.317C249.555 718.819 284.662 701.96 304.419 683.551C308.24 679.991 311.09 676.794 310.754 676.446C310.417 676.097 305.017 678.501 298.754 681.787C269.13 697.328 229.982 709.077 191.866 713.865C184.553 714.783 179.25 716.298 168.83 720.447C153.487 726.554 136.883 731.163 122.307 733.36C109.854 735.237 106.866 735.264 106.866 733.497C106.866 731.48 159.373 678.863 188.866 651.325C230.961 612.021 257.104 588.964 311.488 543.183C331.55 526.295 343.64 514.06 348.79 505.433C350.674 502.278 355.064 492.688 358.545 484.121C366.094 465.549 369.976 458.379 377.857 448.462C398.541 422.433 431.19 410.439 465.207 416.371C493.217 421.255 514.357 436.226 524.487 458.353C525.826 461.278 527.472 464.09 528.144 464.602C528.816 465.114 533.191 467.007 537.866 468.81C553.023 474.653 577.947 489.19 576.054 491.082C575.573 491.564 565.566 495.547 553.819 499.935C542.071 504.322 532.101 508.465 531.664 509.141C530.428 511.053 522.057 536.955 520.219 544.558C518.909 549.972 518.535 557.322 518.397 580.37C518.261 602.908 517.843 611.376 516.52 618.37C513.626 633.669 509.936 646.883 505.21 658.87C484.904 710.381 445.071 753.092 392.424 779.805C360.411 796.049 335.119 802.353 297.116 803.562C286.528 803.898 277.866 804.545 277.866 805C277.866 805.454 284.068 814.498 291.649 825.098C299.229 835.698 309.608 850.333 314.712 857.62L323.993 870.87H338.614C351.275 870.87 353.798 871.143 357.438 872.905C362.133 875.178 371.866 884.896 371.866 887.31C371.866 888.706 365.562 888.87 311.925 888.87C269.634 888.87 251.785 888.548 251.308 887.777ZM487.261 493.045C495.82 488.095 497.794 475.709 491.366 467.281C481.862 454.821 461.866 461.953 461.866 477.804C461.866 491.349 475.767 499.692 487.261 493.045ZM402.335 886.12C392.159 875.407 332.366 807.445 332.366 806.592C332.366 805.447 348.598 801.587 349.937 802.414C350.379 802.687 363.517 817.639 379.133 835.64C394.749 853.642 408.165 868.893 408.946 869.532C409.916 870.325 418.452 870.8 435.866 871.032L461.366 871.37L468.089 874.555C474.914 877.788 485.282 886.388 484.291 887.992C483.992 888.475 466.018 888.87 444.347 888.87H404.947L402.335 886.12ZM628.116 803.142C630.178 802.926 633.553 802.926 635.616 803.142C637.678 803.358 635.991 803.534 631.866 803.534C627.741 803.534 626.053 803.358 628.116 803.142ZM40.866 749.811C40.866 749.229 41.316 749.03 41.866 749.37C42.416 749.71 42.866 750.187 42.866 750.429C42.866 750.672 42.416 750.87 41.866 750.87C41.316 750.87 40.866 750.394 40.866 749.811ZM48.866 744.37C50.1577 742.995 51.4396 741.87 51.7146 741.87C51.9896 741.87 51.1577 742.995 49.866 744.37C48.5742 745.745 47.2923 746.87 47.0173 746.87C46.7423 746.87 47.5742 745.745 48.866 744.37ZM58.866 735.37C60.1577 733.995 61.4396 732.87 61.7146 732.87C61.9896 732.87 61.1577 733.995 59.866 735.37C58.5742 736.745 57.2923 737.87 57.0173 737.87C56.7423 737.87 57.5742 736.745 58.866 735.37ZM691.186 728.87C691.186 725.295 691.368 723.833 691.589 725.62C691.811 727.408 691.811 730.333 691.589 732.12C691.368 733.908 691.186 732.445 691.186 728.87ZM65.866 729.493C65.866 729.285 66.6535 728.498 67.616 727.743C69.202 726.499 69.2374 726.534 67.9935 728.12C66.6871 729.786 65.866 730.316 65.866 729.493ZM545.866 726.493C545.866 726.285 546.653 725.498 547.616 724.743C549.202 723.499 549.237 723.534 547.994 725.12C546.687 726.786 545.866 727.316 545.866 726.493ZM69.3557 535.37C69.3557 430.87 69.4728 388.269 69.6159 440.7C69.759 493.131 69.759 578.631 69.6159 630.7C69.4728 682.769 69.3557 639.87 69.3557 535.37ZM549.024 720.87C549.024 719.495 549.251 718.933 549.528 719.62C549.806 720.308 549.806 721.433 549.528 722.12C549.251 722.808 549.024 722.245 549.024 720.87ZM691.351 586.87C691.351 513.995 691.47 484.183 691.616 520.62C691.761 557.058 691.761 616.683 691.616 653.12C691.47 689.558 691.351 659.745 691.351 586.87ZM536.866 717.493C536.866 717.285 537.653 716.498 538.616 715.743C540.202 714.499 540.237 714.534 538.994 716.12C537.687 717.786 536.866 718.316 536.866 717.493ZM541.616 714.208C542.303 713.931 543.428 713.931 544.116 714.208C544.803 714.485 544.241 714.712 542.866 714.712C541.491 714.712 540.928 714.485 541.616 714.208ZM564.738 601.12C563.495 599.534 563.53 599.499 565.116 600.743C566.782 602.049 567.311 602.87 566.488 602.87C566.281 602.87 565.493 602.083 564.738 601.12ZM570.866 602.493C570.866 602.285 571.653 601.498 572.616 600.743C574.202 599.499 574.237 599.534 572.994 601.12C571.687 602.786 570.866 603.316 570.866 602.493ZM133.738 596.12C132.495 594.534 132.53 594.499 134.116 595.743C135.078 596.498 135.866 597.285 135.866 597.493C135.866 598.316 135.045 597.786 133.738 596.12ZM132.866 590.493C132.866 590.285 133.653 589.498 134.616 588.743C136.202 587.499 136.237 587.534 134.994 589.12C133.687 590.786 132.866 591.316 132.866 590.493ZM194.135 513.177C195.108 512.924 196.458 512.94 197.135 513.214C197.812 513.488 197.016 513.696 195.366 513.675C193.716 513.655 193.162 513.431 194.135 513.177ZM200.366 510.87C201.361 509.77 202.401 508.87 202.676 508.87C202.951 508.87 202.361 509.77 201.366 510.87C200.37 511.97 199.331 512.87 199.056 512.87C198.781 512.87 199.37 511.97 200.366 510.87ZM202.945 505.287C202.993 504.122 203.23 503.885 203.549 504.683C203.838 505.405 203.802 506.267 203.47 506.6C203.138 506.932 202.901 506.341 202.945 505.287ZM200.271 499.62L198.366 497.37L200.616 499.275C201.853 500.323 202.866 501.336 202.866 501.525C202.866 502.326 202.061 501.735 200.271 499.62ZM131.092 466.292C132.042 465.3 133.034 464.705 133.297 464.968C133.56 465.231 132.783 466.042 131.57 466.77C129.464 468.035 129.443 468.014 131.092 466.292ZM291.43 444.577C291.806 443.591 292.365 443.036 292.673 443.344C292.981 443.652 292.673 444.459 291.99 445.137C291.002 446.117 290.888 446.002 291.43 444.577ZM284.945 442.287C284.993 441.122 285.23 440.885 285.549 441.683C285.838 442.405 285.802 443.267 285.47 443.599C285.138 443.932 284.901 443.341 284.945 442.287ZM230.738 401.12C229.469 399.502 229.516 399.48 231.366 400.837C232.466 401.644 233.553 402.432 233.783 402.587C234.012 402.743 233.729 402.87 233.155 402.87C232.581 402.87 231.493 402.083 230.738 401.12ZM235.949 402.587C236.178 402.432 237.266 401.644 238.366 400.837C240.216 399.48 240.263 399.502 238.994 401.12C238.239 402.083 237.151 402.87 236.577 402.87C236.003 402.87 235.72 402.743 235.949 402.587ZM228.945 397.287C228.993 396.122 229.23 395.885 229.549 396.683C229.838 397.405 229.802 398.267 229.47 398.599C229.138 398.932 228.901 398.341 228.945 397.287ZM239.945 397.287C239.993 396.122 240.23 395.885 240.549 396.683C240.838 397.405 240.802 398.267 240.47 398.599C240.138 398.932 239.901 398.341 239.945 397.287ZM229.866 394.493C229.866 394.285 230.653 393.498 231.616 392.743C233.202 391.499 233.237 391.534 231.994 393.12C230.687 394.786 229.866 395.316 229.866 394.493ZM622.286 363.37C622.285 352.37 622.431 347.734 622.611 353.067C622.79 358.4 622.791 367.4 622.613 373.067C622.434 378.734 622.287 374.37 622.286 363.37ZM543.945 379.287C543.993 378.122 544.23 377.885 544.549 378.683C544.838 379.405 544.802 380.267 544.47 380.599C544.138 380.932 543.902 380.341 543.945 379.287ZM336.866 366.344C336.041 366.183 331.991 365.506 327.866 364.841C306.153 361.339 282.756 347.491 268.363 329.622C260.244 319.542 251.712 302.616 248.83 290.87C235.667 237.226 267.612 184.403 322.366 169.275C330.434 167.045 354.079 166.236 363.342 167.871C382.099 171.183 400.021 180.418 414.587 194.278C428.87 207.869 437.93 222.925 443.09 241.646C444.884 248.156 445.22 252.122 445.228 266.87C445.237 283.067 445.035 285.041 442.514 293.37C432.551 326.286 408.76 351.056 377.153 361.42C364.983 365.41 344.733 367.886 336.866 366.344ZM340.866 330.37L341.366 321.37L345.116 321.06C347.178 320.889 348.886 321.114 348.909 321.56C348.933 322.006 349.122 325.97 349.329 330.37C349.536 334.77 349.741 338.708 349.786 339.12C349.83 339.533 353.916 339.87 358.866 339.87H367.866V330.416V320.961L371.616 320.334C384.666 318.152 393.292 313.404 397.637 306.012C400.031 301.94 400.366 300.326 400.366 292.87C400.366 285.227 400.055 283.816 397.279 278.87C394.92 274.666 392.86 272.573 388.537 269.984L382.88 266.598L387.334 262.451C393.023 257.153 395.042 252.286 395.042 243.87C395.042 230.095 387.642 221.176 373.866 218.348L368.366 217.219L367.866 207.295L367.366 197.37L358.653 197.082L349.939 196.794L349.653 206.582L349.366 216.37H345.366H341.366L340.866 206.87L340.366 197.37H331.366H322.366L322.08 207.09L321.794 216.809L309.58 217.09L297.366 217.37V225.37V233.37L303.592 233.667C313.202 234.126 312.866 232.866 312.866 268.402C312.866 292.779 312.597 298.856 311.449 300.425C310.393 301.869 308.42 302.491 303.699 302.866L297.366 303.37V311.87V320.37L309.366 320.87L321.366 321.37L321.636 329.37C321.784 333.77 322.114 337.95 322.369 338.66C322.711 339.61 325.139 339.873 331.6 339.66L340.366 339.37L340.866 330.37ZM336.53 290.419C336.179 284.672 336.178 279.221 336.528 278.308C337.089 276.847 338.744 276.697 350.266 277.059C364.886 277.517 369.246 278.858 372.16 283.791C374.658 288.02 374.369 293.458 371.494 296.333C368.026 299.801 362.841 300.858 349.268 300.865L337.17 300.87L336.53 290.419ZM336.295 256.545C336.015 255.817 335.917 250.979 336.076 245.795L336.366 236.37L343.366 236.05C354.065 235.56 362.339 236.714 366.048 239.214C372.818 243.777 371.977 252.553 364.442 255.975C359.277 258.321 337.148 258.769 336.295 256.545ZM134.061 350.37C134.081 348.72 134.305 348.166 134.559 349.139C134.812 350.112 134.796 351.462 134.522 352.139C134.248 352.816 134.041 352.02 134.061 350.37ZM150.024 350.87C150.024 349.495 150.251 348.933 150.528 349.62C150.806 350.308 150.806 351.433 150.528 352.12C150.251 352.808 150.024 352.245 150.024 350.87ZM136.366 344.87C137.361 343.77 138.401 342.87 138.676 342.87C138.951 342.87 138.361 343.77 137.366 344.87C136.37 345.97 135.331 346.87 135.056 346.87C134.781 346.87 135.37 345.97 136.366 344.87ZM147.271 344.62L145.366 342.37L147.616 344.275C148.853 345.323 149.866 346.336 149.866 346.525C149.866 347.326 149.061 346.735 147.271 344.62ZM141.678 342.187C142.4 341.898 143.263 341.934 143.595 342.266C143.927 342.598 143.337 342.835 142.283 342.791C141.118 342.743 140.881 342.506 141.678 342.187ZM70.0238 334.87C70.0238 333.495 70.2508 332.933 70.5282 333.62C70.8056 334.308 70.8056 335.433 70.5282 336.12C70.2508 336.808 70.0238 336.245 70.0238 334.87ZM621.024 332.87C621.024 331.495 621.251 330.933 621.528 331.62C621.806 332.308 621.806 333.433 621.528 334.12C621.251 334.808 621.024 334.245 621.024 332.87ZM41.0238 331.87C41.0238 330.495 41.2508 329.933 41.5282 330.62C41.8056 331.308 41.8056 332.433 41.5282 333.12C41.2508 333.808 41.0238 333.245 41.0238 331.87ZM649.098 330.87C649.098 328.945 649.304 328.158 649.555 329.12C649.807 330.083 649.807 331.658 649.555 332.62C649.304 333.583 649.098 332.795 649.098 330.87ZM0.118141 326.37C0.129241 324.17 0.334029 323.388 0.573219 324.632C0.812409 325.876 0.803326 327.676 0.553016 328.632C0.302726 329.588 0.107041 328.57 0.118141 326.37ZM70.9449 326.287C70.9929 325.122 71.2298 324.885 71.5491 325.683C71.8379 326.405 71.8024 327.267 71.4702 327.6C71.1379 327.932 70.9015 327.341 70.9449 326.287ZM619.945 324.287C619.993 323.122 620.23 322.885 620.549 323.683C620.838 324.405 620.802 325.267 620.47 325.6C620.138 325.932 619.902 325.341 619.945 324.287ZM690.061 320.37C690.081 318.72 690.305 318.166 690.559 319.139C690.812 320.112 690.796 321.462 690.522 322.139C690.248 322.816 690.041 322.02 690.061 320.37ZM41.9449 319.287C41.9929 318.122 42.2298 317.885 42.5491 318.683C42.8379 319.405 42.8024 320.267 42.4702 320.6C42.1379 320.932 41.9015 320.341 41.9449 319.287ZM71.9449 319.287C71.9929 318.122 72.2298 317.885 72.5491 318.683C72.8379 319.405 72.8024 320.267 72.4702 320.6C72.1379 320.932 71.9015 320.341 71.9449 319.287ZM618.945 317.287C618.993 316.122 619.23 315.885 619.549 316.683C619.838 317.405 619.802 318.267 619.47 318.6C619.138 318.932 618.902 318.341 618.945 317.287ZM647.945 317.287C647.993 316.122 648.23 315.885 648.549 316.683C648.838 317.405 648.802 318.267 648.47 318.6C648.138 318.932 647.902 318.341 647.945 317.287ZM0.944908 313.287C0.992908 312.122 1.22984 311.885 1.54906 312.683C1.83793 313.405 1.80243 314.267 1.47018 314.6C1.13788 314.932 0.901488 314.341 0.944908 313.287ZM72.9449 313.287C72.9929 312.122 73.2298 311.885 73.5491 312.683C73.8379 313.405 73.8024 314.267 73.4702 314.6C73.1379 314.932 72.9015 314.341 72.9449 313.287ZM42.9449 310.287C42.9929 309.122 43.2298 308.885 43.5491 309.683C43.8379 310.405 43.8024 311.267 43.4702 311.6C43.1379 311.932 42.9015 311.341 42.9449 310.287ZM646.945 308.287C646.993 307.122 647.23 306.885 647.549 307.683C647.838 308.405 647.802 309.267 647.47 309.6C647.138 309.932 646.902 309.341 646.945 308.287ZM645.945 301.287C645.993 300.122 646.23 299.885 646.549 300.683C646.838 301.405 646.802 302.267 646.47 302.6C646.138 302.932 645.902 302.341 645.945 301.287ZM687.945 301.287C687.993 300.122 688.23 299.885 688.549 300.683C688.838 301.405 688.802 302.267 688.47 302.6C688.138 302.932 687.902 302.341 687.945 301.287ZM2.94491 296.287C2.99291 295.122 3.22984 294.885 3.54906 295.683C3.83793 296.405 3.80243 297.267 3.47018 297.6C3.13788 297.932 2.90149 297.341 2.94491 296.287ZM644.945 295.287C644.993 294.122 645.23 293.885 645.549 294.683C645.838 295.405 645.802 296.267 645.47 296.6C645.138 296.932 644.902 296.341 644.945 295.287ZM686.945 294.287C686.993 293.122 687.23 292.885 687.549 293.683C687.838 294.405 687.802 295.267 687.47 295.6C687.138 295.932 686.902 295.341 686.945 294.287ZM516.866 283.192C516.866 282.636 517.878 281.323 519.116 280.275L521.366 278.37L519.377 280.87C518.283 282.245 517.27 283.558 517.127 283.787C516.983 284.016 516.866 283.748 516.866 283.192ZM528.271 280.62L526.366 278.37L528.616 280.275C529.853 281.323 530.866 282.336 530.866 282.525C530.866 283.326 530.061 282.735 528.271 280.62ZM523.678 278.187C524.4 277.898 525.263 277.934 525.595 278.266C525.927 278.598 525.337 278.835 524.283 278.791C523.118 278.743 522.881 278.506 523.678 278.187ZM181.738 231.12C180.495 229.534 180.53 229.499 182.116 230.743C183.078 231.498 183.866 232.285 183.866 232.493C183.866 233.316 183.045 232.786 181.738 231.12ZM182.588 219.82C183.81 218.534 185.004 217.681 185.24 217.926C185.477 218.17 184.477 219.223 183.018 220.264L180.366 222.158L182.588 219.82ZM192.738 220.12C191.495 218.534 191.53 218.499 193.116 219.743C194.078 220.498 194.866 221.285 194.866 221.493C194.866 222.316 194.045 221.786 192.738 220.12ZM124.866 194.493C124.866 194.285 125.653 193.498 126.616 192.743C128.202 191.499 128.237 191.534 126.994 193.12C125.687 194.786 124.866 195.316 124.866 194.493ZM558.738 185.12C557.495 183.534 557.53 183.499 559.116 184.743C560.782 186.049 561.311 186.87 560.488 186.87C560.281 186.87 559.493 186.083 558.738 185.12ZM131.866 185.493C131.866 185.285 132.653 184.498 133.616 183.743C135.202 182.499 135.237 182.534 133.994 184.12C132.687 185.786 131.866 186.316 131.866 185.493ZM553.79 179.12L551.366 176.37L554.116 178.795C555.628 180.128 556.866 181.366 556.866 181.545C556.866 182.329 556.056 181.691 553.79 179.12ZM139.366 176.87C140.361 175.77 141.401 174.87 141.676 174.87C141.951 174.87 141.361 175.77 140.366 176.87C139.37 177.97 138.331 178.87 138.056 178.87C137.781 178.87 138.37 177.97 139.366 176.87ZM539.345 163.62L530.366 154.37L539.616 163.35C544.703 168.288 548.866 172.451 548.866 172.6C548.866 173.326 547.685 172.212 539.345 163.62ZM150.866 164.37C154.409 160.795 157.533 157.87 157.808 157.87C158.083 157.87 155.409 160.795 151.866 164.37C148.323 167.945 145.199 170.87 144.924 170.87C144.649 170.87 147.323 167.945 150.866 164.37ZM585.738 159.12C584.495 157.534 584.53 157.499 586.116 158.743C587.782 160.049 588.311 160.87 587.488 160.87C587.281 160.87 586.493 160.083 585.738 159.12ZM581.738 154.12C580.495 152.534 580.53 152.499 582.116 153.743C583.782 155.049 584.311 155.87 583.488 155.87C583.281 155.87 582.493 155.083 581.738 154.12ZM108.866 152.493C108.866 152.285 109.653 151.498 110.616 150.743C112.202 149.499 112.237 149.534 110.994 151.12C109.687 152.786 108.866 153.316 108.866 152.493ZM165.366 150.87C166.361 149.77 167.401 148.87 167.676 148.87C167.951 148.87 167.361 149.77 166.366 150.87C165.37 151.97 164.331 152.87 164.056 152.87C163.781 152.87 164.37 151.97 165.366 150.87ZM523.271 148.62L521.366 146.37L523.616 148.275C524.853 149.323 525.866 150.336 525.866 150.525C525.866 151.326 525.061 150.735 523.271 148.62ZM577.271 148.62L575.366 146.37L577.616 148.275C578.853 149.323 579.866 150.336 579.866 150.525C579.866 151.326 579.061 150.735 577.271 148.62ZM114.366 145.87C115.361 144.77 116.401 143.87 116.676 143.87C116.951 143.87 116.361 144.77 115.366 145.87C114.37 146.97 113.331 147.87 113.056 147.87C112.781 147.87 113.37 146.97 114.366 145.87ZM170.866 146.493C170.866 146.285 171.653 145.498 172.616 144.743C174.202 143.499 174.237 143.534 172.994 145.12C171.687 146.786 170.866 147.316 170.866 146.493ZM516.738 143.12C515.495 141.534 515.53 141.499 517.116 142.743C518.782 144.049 519.311 144.87 518.488 144.87C518.281 144.87 517.493 144.083 516.738 143.12ZM338.396 141.647C332.716 138.347 329.866 133.677 329.866 127.673C329.866 121.93 331.611 118.104 335.859 114.529C346.09 105.921 362.033 113.743 362.033 127.37C362.033 139.615 348.728 147.651 338.396 141.647ZM571.271 141.62L569.366 139.37L571.616 141.275C572.853 142.323 573.866 143.336 573.866 143.525C573.866 144.326 573.061 143.735 571.271 141.62ZM118.866 140.557C118.866 140.385 120.328 138.923 122.116 137.307L125.366 134.37L122.429 137.62C119.691 140.65 118.866 141.33 118.866 140.557ZM616.738 133.12C615.495 131.534 615.53 131.499 617.116 132.743C618.782 134.049 619.311 134.87 618.488 134.87C618.281 134.87 617.493 134.083 616.738 133.12ZM559.319 128.62L555.366 124.37L559.616 128.323C563.568 131.999 564.326 132.87 563.569 132.87C563.406 132.87 561.493 130.958 559.319 128.62ZM74.866 130.493C74.866 130.285 75.6535 129.498 76.616 128.743C78.202 127.499 78.2374 127.534 76.9935 129.12C75.6871 130.786 74.866 131.316 74.866 130.493ZM612.738 128.12C611.495 126.534 611.53 126.499 613.116 127.743C614.782 129.049 615.311 129.87 614.488 129.87C614.281 129.87 613.493 129.083 612.738 128.12ZM78.866 125.493C78.866 125.285 79.6535 124.498 80.616 123.743C82.202 122.499 82.2374 122.534 80.9935 124.12C79.6871 125.786 78.866 126.316 78.866 125.493ZM607.738 122.12C606.495 120.534 606.53 120.499 608.116 121.743C609.782 123.049 610.311 123.87 609.488 123.87C609.281 123.87 608.493 123.083 607.738 122.12ZM140.866 118.37C142.732 116.445 144.483 114.87 144.758 114.87C145.033 114.87 143.732 116.445 141.866 118.37C140 120.295 138.249 121.87 137.974 121.87C137.699 121.87 139 120.295 140.866 118.37ZM85.866 117.37C87.1577 115.995 88.4396 114.87 88.7146 114.87C88.9896 114.87 88.1577 115.995 86.866 117.37C85.5742 118.745 84.2923 119.87 84.0173 119.87C83.7423 119.87 84.5742 118.745 85.866 117.37ZM545.79 116.12L543.366 113.37L546.116 115.795C547.628 117.128 548.866 118.366 548.866 118.545C548.866 119.329 548.056 118.691 545.79 116.12ZM600.303 113.62L597.366 110.37L600.616 113.307C602.403 114.923 603.866 116.385 603.866 116.557C603.866 117.33 603.041 116.65 600.303 113.62ZM149.366 110.87C150.361 109.77 151.401 108.87 151.676 108.87C151.951 108.87 151.361 109.77 150.366 110.87C149.37 111.97 148.331 112.87 148.056 112.87C147.781 112.87 148.37 111.97 149.366 110.87ZM538.271 109.62L536.366 107.37L538.616 109.275C539.853 110.323 540.866 111.336 540.866 111.525C540.866 112.326 540.061 111.735 538.271 109.62ZM101.866 100.37C107.069 95.1453 111.551 90.8703 111.826 90.8703C112.101 90.8703 108.069 95.1453 102.866 100.37C97.6627 105.595 93.1805 109.87 92.9054 109.87C92.6304 109.87 96.6627 105.595 101.866 100.37ZM153.866 107.493C153.866 107.285 154.653 106.498 155.616 105.743C157.202 104.499 157.237 104.534 155.994 106.12C154.687 107.786 153.866 108.316 153.866 107.493ZM532.738 105.12C531.495 103.534 531.53 103.499 533.116 104.743C534.782 106.049 535.311 106.87 534.488 106.87C534.281 106.87 533.493 106.083 532.738 105.12ZM158.866 103.493C158.866 103.285 159.653 102.498 160.616 101.743C162.202 100.499 162.237 100.534 160.994 102.12C159.687 103.786 158.866 104.316 158.866 103.493ZM576.812 90.1203L573.366 86.3703L577.116 89.8165C579.178 91.7119 580.866 93.3994 580.866 93.5665C580.866 94.3301 580.02 93.6108 576.812 90.1203ZM118.866 84.3703C120.158 82.9953 121.44 81.8703 121.715 81.8703C121.99 81.8703 121.158 82.9953 119.866 84.3703C118.574 85.7453 117.292 86.8703 117.017 86.8703C116.742 86.8703 117.574 85.7453 118.866 84.3703ZM300.678 86.1872C301.4 85.8984 302.263 85.9339 302.595 86.2661C302.927 86.5984 302.337 86.8348 301.283 86.7914C300.118 86.7434 299.881 86.5065 300.678 86.1872ZM306.678 85.1872C307.4 84.8984 308.263 84.9339 308.595 85.2661C308.927 85.5984 308.337 85.8348 307.283 85.7914C306.118 85.7434 305.881 85.5065 306.678 85.1872ZM384.678 85.1872C385.4 84.8984 386.263 84.9339 386.595 85.2661C386.927 85.5984 386.337 85.8348 385.283 85.7914C384.118 85.7434 383.881 85.5065 384.678 85.1872ZM314.678 84.1872C315.4 83.8984 316.263 83.9339 316.595 84.2661C316.927 84.5984 316.337 84.8348 315.283 84.7914C314.118 84.7434 313.881 84.5065 314.678 84.1872ZM376.678 84.1872C377.4 83.8984 378.263 83.9339 378.595 84.2661C378.927 84.5984 378.337 84.8348 377.283 84.7914C376.118 84.7434 375.881 84.5065 376.678 84.1872ZM568.271 82.6203L566.366 80.3703L568.616 82.2753C569.853 83.3231 570.866 84.3356 570.866 84.5253C570.866 85.3256 570.061 84.7348 568.271 82.6203ZM324.616 83.2081C325.303 82.9307 326.428 82.9307 327.116 83.2081C327.803 83.4855 327.241 83.7125 325.866 83.7125C324.491 83.7125 323.928 83.4855 324.616 83.2081ZM366.135 83.1774C367.108 82.9238 368.458 82.9405 369.135 83.2144C369.812 83.4883 369.016 83.6957 367.366 83.6754C365.716 83.655 365.162 83.4309 366.135 83.1774ZM334.366 61.3703C334.366 49.6504 334.703 40.2699 335.116 40.5249C335.528 40.7798 335.866 50.1603 335.866 61.3703C335.866 72.5804 335.528 81.9609 335.116 82.2158C334.703 82.4708 334.366 73.0903 334.366 61.3703ZM124.866 79.4928C124.866 79.2851 125.653 78.4976 126.616 77.7428C128.202 76.4989 128.237 76.5343 126.994 78.1203C125.687 79.7861 124.866 80.3158 124.866 79.4928ZM562.738 78.1203C561.495 76.5343 561.53 76.4989 563.116 77.7428C564.782 79.0492 565.311 79.8703 564.488 79.8703C564.281 79.8703 563.493 79.0828 562.738 78.1203ZM552.738 70.1203C551.495 68.5343 551.53 68.4989 553.116 69.7428C554.078 70.4976 554.866 71.2851 554.866 71.4928C554.866 72.3158 554.045 71.7861 552.738 70.1203ZM296.678 43.1872C297.4 42.8984 298.263 42.9339 298.595 43.2662C298.927 43.5985 298.337 43.8348 297.283 43.7914C296.118 43.7434 295.881 43.5065 296.678 43.1872ZM393.678 43.1872C394.4 42.8984 395.263 42.9339 395.595 43.2662C395.927 43.5985 395.337 43.8348 394.283 43.7914C393.118 43.7434 392.881 43.5065 393.678 43.1872ZM386.678 42.1872C387.4 41.8984 388.263 41.9339 388.595 42.2662C388.927 42.5985 388.337 42.8348 387.283 42.7914C386.118 42.7434 385.881 42.5065 386.678 42.1872ZM311.678 41.1872C312.4 40.8984 313.263 40.9339 313.595 41.2662C313.927 41.5985 313.337 41.8348 312.283 41.7914C311.118 41.7434 310.881 41.5065 311.678 41.1872ZM377.616 41.2081C378.303 40.9306 379.428 40.9306 380.116 41.2081C380.803 41.4855 380.241 41.7124 378.866 41.7124C377.491 41.7124 376.928 41.4855 377.616 41.2081ZM323.135 40.1773C324.108 39.9238 325.458 39.9405 326.135 40.2144C326.812 40.4883 326.016 40.6958 324.366 40.6754C322.716 40.655 322.162 40.4309 323.135 40.1773ZM367.135 40.1773C368.108 39.9238 369.458 39.9405 370.135 40.2144C370.812 40.4883 370.016 40.6958 368.366 40.6754C366.716 40.655 366.162 40.4309 367.135 40.1773ZM406.678 5.18723C407.4 4.89836 408.263 4.93389 408.595 5.26618C408.927 5.59847 408.337 5.83482 407.283 5.7914C406.118 5.74342 405.881 5.50646 406.678 5.18723ZM285.678 4.18723C286.4 3.89836 287.263 3.93389 287.595 4.26618C287.927 4.59847 287.337 4.83482 286.283 4.7914C285.118 4.74342 284.881 4.50646 285.678 4.18723ZM291.678 3.18723C292.4 2.89836 293.263 2.93389 293.595 3.26618C293.927 3.59847 293.337 3.83482 292.283 3.7914C291.118 3.74342 290.881 3.50646 291.678 3.18723ZM394.678 3.18723C395.4 2.89836 396.263 2.93389 396.595 3.26618C396.927 3.59847 396.337 3.83482 395.283 3.7914C394.118 3.74342 393.881 3.50646 394.678 3.18723ZM298.678 2.18723C299.4 1.89836 300.263 1.93389 300.595 2.26618C300.927 2.59847 300.337 2.83482 299.283 2.7914C298.118 2.74342 297.881 2.50646 298.678 2.18723ZM387.678 2.18723C388.4 1.89836 389.263 1.93389 389.595 2.26618C389.927 2.59847 389.337 2.83482 388.283 2.7914C387.118 2.74342 386.881 2.50646 387.678 2.18723ZM307.678 1.18723C308.4 0.89836 309.263 0.933886 309.595 1.26618C309.927 1.59847 309.337 1.83482 308.283 1.7914C307.118 1.74342 306.881 1.50646 307.678 1.18723ZM378.616 1.20806C379.303 0.930647 380.428 0.930647 381.116 1.20806C381.803 1.48547 381.241 1.71245 379.866 1.71245C378.491 1.71245 377.928 1.48547 378.616 1.20806ZM318.616 0.208059C319.303 -0.069353 320.428 -0.069353 321.116 0.208059C321.803 0.485472 321.241 0.712446 319.866 0.712446C318.491 0.712446 317.928 0.485472 318.616 0.208059ZM366.616 0.208059C367.303 -0.069353 368.428 -0.069353 369.116 0.208059C369.803 0.485472 369.241 0.712446 367.866 0.712446C366.491 0.712446 365.928 0.485472 366.616 0.208059Z" fill="#F6C919"/>
<path d="M6.97402 925.154C4.69612 924.032 2.96455 922.087 1.70165 919.232C-0.127787 915.096 -0.169754 906.869 0.156136 616.176C0.408556 391.016 0.78637 315.275 1.68908 308.87C7.26537 269.304 14.6815 241.155 27.3759 211.37C55.5436 145.281 106.959 85.7989 167.366 49.4173C213.754 21.4787 263.5 5.28622 316.732 0.798192C334.279 -0.681181 370.521 0.116371 386.866 2.34157C477.333 14.6578 556.499 58.9252 613.672 129.166C659.06 184.926 688.28 261.011 690.369 328.87C690.632 337.395 691.071 472.761 691.345 629.683L691.843 914.995L689.796 919.008C688.35 921.842 686.518 923.58 683.557 924.924C679.464 926.782 671.541 926.826 344.866 926.826C34.3523 926.825 10.1227 926.705 6.97402 925.154ZM371.866 887.311C371.866 884.896 362.133 875.178 357.438 872.905C353.798 871.143 351.275 870.87 338.614 870.87H323.993L314.712 857.62C309.608 850.333 299.229 835.698 291.649 825.098C284.068 814.498 277.866 805.454 277.866 805C277.866 804.546 286.528 803.898 297.116 803.562C335.119 802.353 360.411 796.049 392.424 779.805C445.071 753.092 484.904 710.381 505.21 658.87C509.936 646.883 513.626 633.669 516.52 618.37C517.843 611.376 518.261 602.908 518.397 580.37C518.535 557.322 518.909 549.972 520.219 544.558C522.057 536.955 530.427 511.053 531.664 509.141C532.101 508.465 542.071 504.322 553.818 499.935C565.566 495.547 575.572 491.564 576.054 491.082C577.947 489.19 553.023 474.653 537.866 468.81C533.191 467.007 528.816 465.114 528.144 464.602C527.472 464.09 525.826 461.278 524.486 458.353C516.425 440.744 502.289 428.265 482.03 420.871C443.595 406.844 402.222 417.802 377.857 448.462C369.976 458.379 366.094 465.549 358.545 484.121C355.064 492.688 350.674 502.279 348.79 505.433C343.64 514.06 331.55 526.295 311.488 543.183C257.104 588.964 230.961 612.021 188.866 651.325C159.373 678.863 106.866 731.48 106.866 733.497C106.866 735.264 109.854 735.237 122.307 733.36C136.883 731.163 153.487 726.555 168.83 720.447C179.25 716.298 184.553 714.783 191.866 713.865C229.982 709.077 269.13 697.328 298.754 681.787C305.017 678.501 310.417 676.097 310.754 676.446C311.09 676.794 308.24 679.991 304.419 683.551C284.662 701.96 249.555 718.819 215.366 726.317C208.766 727.764 202.704 729.18 201.894 729.463C195.092 731.841 222.256 732.713 244.366 730.826C320.097 724.363 383.385 691.324 412.217 643.201C419.946 630.3 425.066 614.595 427.078 597.62C427.714 592.258 428.583 587.87 429.011 587.87C429.874 587.87 431.334 592.792 432.862 600.848C435.255 613.47 433.299 631.145 427.859 646.051C411.257 691.542 346.685 735.516 274.866 750.241C241.982 756.983 215.201 757.939 167.866 754.061C153.291 752.867 134.745 751.592 126.652 751.227L111.939 750.563L99.6534 760.467C66.667 787.058 42.2351 807.248 41.0314 808.913C39.9557 810.4 39.8378 815.618 40.4236 835.814C40.8888 851.851 41.5208 860.87 42.1794 860.87C42.7454 860.87 43.9189 860.253 44.7872 859.499C46.5451 857.973 99.1524 821.314 136.748 795.418L161.13 778.623L165.748 779.192C168.288 779.505 183.641 783.563 199.866 788.211C216.091 792.858 234.766 797.866 241.366 799.339C247.966 800.811 253.66 802.321 254.02 802.693C254.66 803.355 265.203 818.266 289.039 852.216C295.544 861.482 300.866 869.429 300.866 869.877C300.866 870.324 293.984 870.844 285.573 871.031L270.281 871.37L264.576 874.83C257.84 878.915 250.349 886.225 251.308 887.777C251.785 888.549 269.634 888.87 311.925 888.87C365.561 888.87 371.866 888.706 371.866 887.311ZM473.521 494.444C456.299 488.158 458.764 462.836 476.767 461.106C485.487 460.268 492.696 465.709 494.703 474.643C497.653 487.768 485.74 498.905 473.521 494.444ZM484.291 887.992C485.282 886.388 474.914 877.788 468.089 874.555L461.366 871.37L435.866 871.032C418.452 870.8 409.916 870.325 408.946 869.532C408.165 868.893 394.749 853.642 379.133 835.641C363.517 817.639 350.379 802.687 349.937 802.414C348.598 801.587 332.366 805.447 332.366 806.592C332.366 807.445 392.159 875.407 402.335 886.12L404.947 888.87H444.347C466.018 888.87 483.992 888.475 484.291 887.992ZM500.842 806.894C503.24 804.496 502.335 800.958 499.009 799.728C497.402 799.133 496.293 799.444 494.842 800.894C492.36 803.376 492.364 804.369 494.866 806.87C497.368 809.372 498.36 809.376 500.842 806.894ZM649.138 801.995C649.562 801.572 649.769 692.584 649.597 559.799C649.254 294.184 649.711 314.112 643.27 283.609C633.135 235.606 611.563 189.878 581.83 153.37C542.28 104.81 490.912 69.8907 433.181 52.3209C411.411 45.6954 378.188 39.8752 362.116 39.8715L356.866 39.8703V61.2662V82.6621L365.116 83.348C440.922 89.6496 505.401 122.825 555.621 181.366C573.864 202.631 592.337 233.428 603.479 261.152C611.169 280.286 617.077 302.814 620.464 325.916C621.988 336.312 622.185 358.856 622.59 569.864C622.927 745.227 623.322 802.558 624.201 803.175C625.597 804.155 648.034 803.093 649.138 801.995ZM55.3659 739.259C62.5159 732.88 68.6718 726.92 69.0456 726.015C69.4194 725.111 69.757 637.881 69.7956 532.172C69.8713 325.225 69.7124 332.105 75.0123 306.37C83.2879 266.187 103.589 223.142 130.901 187.87C139.779 176.405 163.161 152.797 174.866 143.48C200.187 123.326 230.456 106.888 260.693 96.8698C282.101 89.7769 298.362 86.4797 328.366 83.1477L335.366 82.3703V61.3703V40.3703L324.941 40.5887C298.313 41.1466 263.716 48.7879 232.866 60.9254C174.131 84.0333 122.816 126.998 88.4116 181.87C69.8472 211.48 54.6139 250.015 47.354 285.731C41.0533 316.73 41.4824 299.488 41.1346 535.62C40.9602 654.008 41.1659 750.868 41.5917 750.864C42.0175 750.861 48.2159 745.639 55.3659 739.259ZM548.509 724.293C550.668 720.998 549.447 717.052 545.603 714.901C543.145 713.527 542.585 713.527 540.116 714.902C536.698 716.805 535.827 722.065 538.451 724.964C541.066 727.855 546.408 727.498 548.509 724.293ZM572.666 601.67C575.494 598.842 572.915 592.87 568.866 592.87C564.817 592.87 562.238 598.842 565.066 601.67C565.726 602.33 567.436 602.87 568.866 602.87C570.296 602.87 572.006 602.33 572.666 601.67ZM142.414 595.437C144.251 592.634 143.223 589.667 139.776 587.822C135.237 585.393 130.355 592.959 134.066 596.67C136.159 598.763 140.672 598.096 142.414 595.437ZM200.51 511.5C207.772 505.254 199.98 493.544 191.55 498.034C185.914 501.035 185.159 507.257 189.943 511.281C193.768 514.5 196.946 514.566 200.51 511.5ZM136.677 469.188C137.079 466.358 133.441 464.148 131.302 465.923C129.779 467.187 129.389 470.06 130.578 471.25C132.136 472.807 136.365 471.378 136.677 469.188ZM291.284 445.554C294.847 442.948 290.853 437.129 287.116 439.483C284.731 440.985 284.438 443.3 286.387 445.249C288.351 447.213 288.963 447.251 291.284 445.554ZM239.533 400.255C241.071 397.909 241.095 397.369 239.768 395.005C238.62 392.96 237.523 392.37 234.866 392.37C232.209 392.37 231.112 392.96 229.964 395.005C228.637 397.369 228.661 397.909 230.198 400.255C231.406 402.098 232.784 402.87 234.866 402.87C236.948 402.87 238.326 402.098 239.533 400.255ZM544 381.619C545.376 379.049 543.797 375.347 541.015 374.62C538.23 373.891 534.866 376.49 534.866 379.37C534.866 384.27 541.684 385.948 544 381.619ZM359.866 365.416C399.9 359.336 430.665 332.518 442.514 293.37C445.035 285.041 445.237 283.067 445.228 266.87C445.22 252.122 444.884 248.156 443.09 241.646C437.93 222.925 428.87 207.869 414.587 194.278C400.021 180.418 382.099 171.183 363.342 167.871C354.079 166.235 330.434 167.045 322.366 169.275C281.682 180.516 252.696 212.584 246.805 252.871C245.252 263.495 246.123 279.837 248.83 290.87C251.712 302.616 260.243 319.542 268.363 329.622C282.756 347.491 306.153 361.339 327.866 364.841C331.991 365.506 336.041 366.183 336.866 366.344C340.895 367.134 351.326 366.713 359.866 365.416ZM322.369 338.66C322.114 337.95 321.784 333.77 321.636 329.37L321.366 321.37L309.366 320.87L297.366 320.37V311.87V303.37L303.699 302.866C308.42 302.491 310.393 301.869 311.449 300.425C312.597 298.856 312.866 292.779 312.866 268.402C312.866 232.866 313.202 234.126 303.592 233.667L297.366 233.37V225.37V217.37L309.58 217.09L321.794 216.809L322.08 207.09L322.366 197.37H331.366H340.366L340.866 206.87L341.366 216.37H345.366H349.366L349.653 206.582L349.939 196.794L358.653 197.082L367.366 197.37L367.866 207.295L368.366 217.219L373.866 218.348C387.642 221.176 395.042 230.095 395.042 243.87C395.042 252.286 393.023 257.153 387.333 262.451L382.88 266.598L388.536 269.984C392.86 272.573 394.92 274.666 397.279 278.87C400.055 283.816 400.366 285.227 400.366 292.87C400.366 300.326 400.031 301.94 397.637 306.012C393.292 313.404 384.666 318.152 371.616 320.334L367.866 320.961V330.416V339.87H358.866C353.916 339.87 349.83 339.533 349.786 339.12C349.741 338.708 349.536 334.77 349.329 330.37C349.122 325.97 348.933 322.006 348.909 321.56C348.886 321.114 347.178 320.889 345.116 321.06L341.366 321.37L340.866 330.37L340.366 339.37L331.6 339.66C325.139 339.873 322.711 339.61 322.369 338.66ZM365.244 299.782C373.177 297.58 376.19 290.613 372.16 283.791C369.246 278.858 364.885 277.517 350.266 277.059C338.744 276.697 337.089 276.847 336.528 278.308C336.178 279.221 336.179 284.672 336.53 290.419L337.17 300.87L349.268 300.864C355.922 300.861 363.111 300.375 365.244 299.782ZM364.442 255.975C371.977 252.553 372.818 243.777 366.048 239.214C362.339 236.714 354.065 235.56 343.366 236.05L336.366 236.37L336.076 245.795C335.917 250.979 336.015 255.817 336.295 256.545C337.148 258.769 359.277 258.321 364.442 255.975ZM148.06 355.83C150.615 353.275 150.998 352.279 150.459 349.584C149.004 342.309 140.885 339.822 136.236 345.226C133.049 348.931 133.227 352.386 136.789 355.947C140.622 359.78 144.146 359.744 148.06 355.83ZM528.677 290.831C533.653 286.196 529.295 276.799 522.909 278.392C516.516 279.987 514.604 286.946 519.501 290.798C522.835 293.421 525.886 293.432 528.677 290.831ZM193.23 231.234C198.441 226.023 194.935 217.87 187.484 217.87C180.67 217.87 177.387 226.482 182.32 231.416C185.6 234.696 189.839 234.625 193.23 231.234ZM488.366 197.37C488.366 194.707 488.031 194.37 485.38 194.37C483.294 194.37 482.288 194.916 482.045 196.179C481.42 199.422 482.687 201.024 485.61 200.687C487.935 200.42 488.366 199.901 488.366 197.37ZM355.325 140.469C369.346 129.775 359.717 108.049 342.395 111.299C338.346 112.058 333.414 115.91 331.33 119.94C330.525 121.497 329.866 124.977 329.866 127.673C329.866 140.68 345.045 148.31 355.325 140.469Z" fill="#161812"/>
</svg>
