<svg xmlns="http://www.w3.org/2000/svg" viewBox="0 0 256 256" width="256" height="256">
  <path fill="#2b90d9" d="M243.252 153.533c-3.765 19.368-33.732 40.565-68.126 44.675-17.942 2.141-35.608 4.11-54.445 3.246-30.816-1.412-55.132-7.356-55.132-7.356 0 3 .185 5.856.555 8.527 4.006 30.412 30.158 32.234 54.929 33.083 25.002.855 47.265-6.165 47.265-6.165l1.027 22.6s-17.488 9.389-48.638 11.116c-17.178.944-38.507-.432-63.354-7.007C3.448 242.002-5.818 184.571-7.236 126.286c-.432-17.303-.166-33.621-.166-47.267 0-59.583 39.041-77.052 39.041-77.052 19.685-9.042 53.462-12.844 88.578-13.131h.863c35.116.287 68.915 4.089 88.598 13.131 0 0 39.039 17.469 39.039 77.052 0 0 .49 43.956-5.445 74.514" transform="translate(8.402 12.009) scale(.97813)"/>
  <path fill="#fff" d="M202.645 84.663v72.145h-28.58V86.784c0-14.759-6.214-22.25-18.635-22.25-13.733 0-20.616 8.886-20.616 26.458v38.321h-28.411V90.992c0-17.572-6.884-26.458-20.616-26.458-12.421 0-18.635 7.491-18.635 22.25v70.024h-28.58V84.663c0-14.742 3.754-26.457 11.294-35.126 7.776-8.669 17.959-13.112 30.604-13.112 14.625 0 25.7 5.622 33.027 16.866l7.12 11.933 7.121-11.933c7.327-11.244 18.402-16.866 33.028-16.866 12.643 0 22.826 4.443 30.604 13.112 7.539 8.669 11.293 20.384 11.293 35.126" transform="translate(8.402 12.009) scale(.97813)"/>
</svg>
