<svg width="512" height="512" viewBox="0 0 512 512" fill="none" xmlns="http://www.w3.org/2000/svg">
  <rect width="512" height="512" fill="#6364FF"/>
  <path d="M372 216c0-72-47-93-47-93-24-11-65-16-102-15h-1c-37-1-78 4-102 15 0 0-47 21-47 93 0 16-1 35 0 54 5 70 39 139 123 154 39 7 72-2 72-2l2-41s-32 10-72 9c-40-1-83-4-90-50a93 93 0 0 1-1-13s40 10 91 12c31 1 61-2 91-5 58-7 109-43 115-75 9-51 8-125 8-143Z" fill="white"/>
  <path d="M322 225v88h-47v-86c0-18-8-27-24-27-18 0-27 12-27 36v47h-46v-47c0-24-9-36-27-36-16 0-24 9-24 27v86H80v-88c0-18 5-32 14-43 10-11 22-17 38-17 18 0 32 7 42 21l9 15 9-15c10-14 24-21 42-21 16 0 28 6 38 17 10 11 15 25 15 43Z" fill="#6364FF"/>
</svg>
