<svg xmlns="http://www.w3.org/2000/svg" viewBox="0 0 256 256" fill="none">
  <title>QubicFlow</title>

  <rect width="256" height="256" fill="#0f1117"/>

  <defs>
    <linearGradient id="qfg" x1="0" y1="0" x2="1" y2="1">
      <stop offset="0%" stop-color="#23FFFF"/>
      <stop offset="100%" stop-color="#00CCCC"/>
    </linearGradient>
    <linearGradient id="qfg-split" x1="0%" y1="0%" x2="100%" y2="0%">
      <stop offset="0%" stop-color="#23FFFF"/>
      <stop offset="50%" stop-color="#00CCCC"/>
      <stop offset="50%" stop-color="#ef4444"/>
      <stop offset="100%" stop-color="#dc2626"/>
    </linearGradient>
  </defs>

  <!-- Bars scaled 4x from original 64x64 logo-mark, centered in 256x256 -->
  <!-- Width: 27.14*4=108.56 → x=(256-108.56)/2=73.72 -->
  <!-- Height: 46.52*4=186.08 → y=(256-186.08)/2=34.96 -->
  <g transform="translate(73.72, 34.96) scale(3.6)">
    <path fill="url(#qfg-split)"
          d="M11.308 0H1.615C.723 0 0 .724 0 1.616v35.538c0 .892.723 1.616 1.615 1.616h9.693c.892 0 1.615-.724 1.615-1.616V1.616C12.923.724 12.2 0 11.308 0Z"/>
    <path fill="url(#qfg)"
          d="M28.538 0h-9.692c-.892 0-1.616.723-1.616 1.615v48.462c0 .892.724 1.615 1.616 1.615h9.692c.892 0 1.616-.723 1.616-1.615V1.615C30.154.723 29.43 0 28.538 0Z"/>
  </g>
</svg>
