<?xml version="1.0" encoding="UTF-8"?>
<!DOCTYPE svg PUBLIC "-//W3C//DTD SVG 1.1//EN" "http://www.w3.org/Graphics/SVG/1.1/DTD/svg11.dtd">
<svg xmlns="http://www.w3.org/2000/svg" version="1.1" width="400px" height="400px" style="shape-rendering:geometricPrecision; text-rendering:geometricPrecision; image-rendering:optimizeQuality; fill-rule:evenodd; clip-rule:evenodd" xmlns:xlink="http://www.w3.org/1999/xlink">
<g><path style="opacity:1" fill="#0cc4d3" d="M -0.5,-0.5 C 132.833,-0.5 266.167,-0.5 399.5,-0.5C 399.5,132.833 399.5,266.167 399.5,399.5C 266.167,399.5 132.833,399.5 -0.5,399.5C -0.5,266.167 -0.5,132.833 -0.5,-0.5 Z"/></g>
<g><path style="opacity:1" fill="#1a7485" d="M 299.5,105.5 C 299.169,127.007 299.503,148.34 300.5,169.5C 300.217,170.289 299.717,170.956 299,171.5C 298.173,148.76 298.34,126.76 299.5,105.5 Z"/></g>
<g><path style="opacity:1" fill="#1f596b" d="M 299.5,105.5 C 308.037,115.88 316.037,126.713 323.5,138C 316.403,148.928 308.736,159.428 300.5,169.5C 299.503,148.34 299.169,127.007 299.5,105.5 Z"/></g>
<g><path style="opacity:1" fill="#fefefe" d="M 134.5,124.5 C 183.833,124.5 233.167,124.5 282.5,124.5C 282.5,134.5 282.5,144.5 282.5,154.5C 238.499,154.333 194.499,154.5 150.5,155C 148.185,156.109 146.685,157.943 146,160.5C 145.11,167.914 145.443,175.247 147,182.5C 147.903,183.701 149.069,184.535 150.5,185C 188.167,185.333 225.833,185.667 263.5,186C 274.625,186.13 281.125,191.63 283,202.5C 283.667,220.167 283.667,237.833 283,255.5C 281.469,265.364 275.969,271.864 266.5,275C 216.501,275.5 166.501,275.667 116.5,275.5C 116.5,265.833 116.5,256.167 116.5,246.5C 160.501,246.667 204.501,246.5 248.5,246C 250.667,245.167 252.167,243.667 253,241.5C 253.667,234.167 253.667,226.833 253,219.5C 252.167,218 251,216.833 249.5,216C 205.75,215.99 162.083,215.323 118.5,214C 117.874,213.25 117.374,212.416 117,211.5C 116.833,199.833 116.667,188.167 116.5,176.5C 116.391,162.795 116.891,149.128 118,135.5C 121.621,128.944 127.121,125.277 134.5,124.5 Z"/></g>
<g><path style="opacity:1" fill="#1a7485" d="M 98.5,293.5 C 99.4973,272.34 99.8306,251.007 99.5,229.5C 100.66,250.76 100.827,272.76 100,295.5C 99.2828,294.956 98.7828,294.289 98.5,293.5 Z"/></g>
<g><path style="opacity:1" fill="#1f596b" d="M 99.5,229.5 C 99.8306,251.007 99.4973,272.34 98.5,293.5C 90.6494,282.813 82.9827,271.98 75.5,261C 83.1512,250.179 91.1512,239.679 99.5,229.5 Z"/></g>
</svg>
