<svg id="visual" viewBox="0 0 256 256" width="256" height="256" xmlns="http://www.w3.org/2000/svg" xmlns:xlink="http://www.w3.org/1999/xlink" version="1.1"><g stroke-width="1" stroke-linejoin="bevel"><path d="M140.8 139.7L111.8 110.8L135.2 143.7Z" fill="#662b74" stroke="#662b74"></path><path d="M140.8 139.7L153.2 101.8L111.8 110.8Z" fill="#00101c" stroke="#00101c"></path><path d="M140.8 139.7L162.7 120.2L153.2 101.8Z" fill="#041b31" stroke="#041b31"></path><path d="M86.3 94.3L91.8 104.2L87.3 82.8Z" fill="#00101c" stroke="#00101c"></path><path d="M111.8 110.8L108.2 167.2L135.2 143.7Z" fill="#ab1777" stroke="#ab1777"></path><path d="M162.7 120.2L158.7 97.8L153.2 101.8Z" fill="#662b74" stroke="#662b74"></path><path d="M87.3 82.8L91.8 104.2L111.8 110.8Z" fill="#041b31" stroke="#041b31"></path><path d="M91.8 104.2L82.9 119.8L111.8 110.8Z" fill="#e80060" stroke="#e80060"></path><path d="M82.9 119.8L108.2 167.2L111.8 110.8Z" fill="#282959" stroke="#282959"></path><path d="M135.2 143.7L181.7 159.1L140.8 139.7Z" fill="#cb006e" stroke="#cb006e"></path><path d="M91.8 104.2L78.9 120.2L82.9 119.8Z" fill="#cb006e" stroke="#cb006e"></path><path d="M82.9 119.8L67.3 145.7L108.2 167.2Z" fill="#662b74" stroke="#662b74"></path><path d="M131.7 72.9L111.8 110.8L153.2 101.8Z" fill="#662b74" stroke="#662b74"></path><path d="M91.8 104.2L86.3 94.3L78.9 120.2Z" fill="#102346" stroke="#102346"></path><path d="M108.2 167.2L123.2 177.1L135.2 143.7Z" fill="#00101c" stroke="#00101c"></path><path d="M181.7 159.1L187.6 123.3L162.7 120.2Z" fill="#00101c" stroke="#00101c"></path><path d="M158.7 97.8L140.8 74.9L153.2 101.8Z" fill="#452c69" stroke="#452c69"></path><path d="M140.8 74.9L131.7 72.9L153.2 101.8Z" fill="#041b31" stroke="#041b31"></path><path d="M131.7 72.9L87.3 82.8L111.8 110.8Z" fill="#ff004c" stroke="#ff004c"></path><path d="M86.3 94.3L54.9 123.3L78.9 120.2Z" fill="#e80060" stroke="#e80060"></path><path d="M181.7 159.1L162.7 120.2L140.8 139.7Z" fill="#282959" stroke="#282959"></path><path d="M162.7 120.2L187.6 123.3L158.7 97.8Z" fill="#452c69" stroke="#452c69"></path><path d="M172.1 61.3L134.2 59.3L140.8 74.9Z" fill="#452c69" stroke="#452c69"></path><path d="M54.9 123.3L67.3 145.7L78.9 120.2Z" fill="#892579" stroke="#892579"></path><path d="M78.9 120.2L67.3 145.7L82.9 119.8Z" fill="#e80060" stroke="#e80060"></path><path d="M136.8 200.6L140.8 197.1L123.2 177.1Z" fill="#282959" stroke="#282959"></path><path d="M123.2 177.1L181.7 159.1L135.2 143.7Z" fill="#041b31" stroke="#041b31"></path><path d="M140.8 74.9L134.2 59.3L131.7 72.9Z" fill="#e80060" stroke="#e80060"></path><path d="M131.7 72.9L96.8 48.3L87.3 82.8Z" fill="#892579" stroke="#892579"></path><path d="M172.1 61.3L140.8 74.9L158.7 97.8Z" fill="#ff004c" stroke="#ff004c"></path><path d="M36.4 113.8L54.9 123.3L86.3 94.3Z" fill="#00101c" stroke="#00101c"></path><path d="M136.8 200.6L123.2 177.1L90.9 205.7Z" fill="#00101c" stroke="#00101c"></path><path d="M123.2 177.1L140.8 197.1L181.7 159.1Z" fill="#041b31" stroke="#041b31"></path><path d="M90.9 205.7L123.2 177.1L108.2 167.2Z" fill="#892579" stroke="#892579"></path><path d="M187.6 123.3L193.1 86.9L158.7 97.8Z" fill="#ab1777" stroke="#ab1777"></path><path d="M193.1 86.9L176.7 65.3L158.7 97.8Z" fill="#892579" stroke="#892579"></path><path d="M176.7 65.3L172.1 61.3L158.7 97.8Z" fill="#452c69" stroke="#452c69"></path><path d="M45.3 174.2L71.3 182.1L67.3 145.7Z" fill="#cb006e" stroke="#cb006e"></path><path d="M67.3 145.7L71.3 182.1L108.2 167.2Z" fill="#ab1777" stroke="#ab1777"></path><path d="M181.7 159.1L205.6 130.2L187.6 123.3Z" fill="#662b74" stroke="#662b74"></path><path d="M187.6 123.3L205.6 130.2L193.1 86.9Z" fill="#00101c" stroke="#00101c"></path><path d="M134.2 59.3L96.8 48.3L131.7 72.9Z" fill="#ab1777" stroke="#ab1777"></path><path d="M87.3 82.8L68.9 60.9L86.3 94.3Z" fill="#452c69" stroke="#452c69"></path><path d="M112.2 37.4L96.8 48.3L134.2 59.3Z" fill="#ff004c" stroke="#ff004c"></path><path d="M96.8 48.3L68.9 60.9L87.3 82.8Z" fill="#00101c" stroke="#00101c"></path><path d="M215.1 144.7L212.1 138.2L181.7 159.1Z" fill="#00101c" stroke="#00101c"></path><path d="M181.7 159.1L212.1 138.2L205.6 130.2Z" fill="#282959" stroke="#282959"></path><path d="M205.6 130.2L256 93.9L193.1 86.9Z" fill="#ab1777" stroke="#ab1777"></path><path d="M215.1 144.7L181.7 159.1L217.1 146.8Z" fill="#ff004c" stroke="#ff004c"></path><path d="M71.3 182.1L90.9 205.7L108.2 167.2Z" fill="#e80060" stroke="#e80060"></path><path d="M147.2 21.9L112.2 37.4L134.2 59.3Z" fill="#ff004c" stroke="#ff004c"></path><path d="M96.8 48.3L65.9 45.4L68.9 60.9Z" fill="#282959" stroke="#282959"></path><path d="M68.9 60.9L36.4 113.8L86.3 94.3Z" fill="#662b74" stroke="#662b74"></path><path d="M26.4 159.2L45.3 174.2L67.3 145.7Z" fill="#00101c" stroke="#00101c"></path><path d="M217.1 146.8L181.7 159.1L213.6 195.1Z" fill="#662b74" stroke="#662b74"></path><path d="M241.6 35.9L193.1 28.4L193.1 86.9Z" fill="#662b74" stroke="#662b74"></path><path d="M202.7 198.7L181.7 159.1L140.8 197.1Z" fill="#892579" stroke="#892579"></path><path d="M215.1 144.7L217.1 146.8L212.1 138.2Z" fill="#662b74" stroke="#662b74"></path><path d="M26.4 159.2L67.3 145.7L22.4 149.7Z" fill="#892579" stroke="#892579"></path><path d="M71.3 182.1L49.9 193.6L90.9 205.7Z" fill="#041b31" stroke="#041b31"></path><path d="M107.8 26.4L65.9 45.4L96.8 48.3Z" fill="#452c69" stroke="#452c69"></path><path d="M68.9 60.9L16.4 105.3L36.4 113.8Z" fill="#ab1777" stroke="#ab1777"></path><path d="M147.2 21.9L107.8 26.4L112.2 37.4Z" fill="#102346" stroke="#102346"></path><path d="M112.2 37.4L107.8 26.4L96.8 48.3Z" fill="#041b31" stroke="#041b31"></path><path d="M45.3 174.2L49.9 193.6L71.3 182.1Z" fill="#102346" stroke="#102346"></path><path d="M22.4 149.7L67.3 145.7L54.9 123.3Z" fill="#452c69" stroke="#452c69"></path><path d="M45.3 174.2L20.4 208.1L49.9 193.6Z" fill="#00101c" stroke="#00101c"></path><path d="M172.1 61.3L147.2 21.9L134.2 59.3Z" fill="#e80060" stroke="#e80060"></path><path d="M169.7 15.4L147.2 21.9L172.1 61.3Z" fill="#282959" stroke="#282959"></path><path d="M193.1 28.4L172.1 61.3L176.7 65.3Z" fill="#041b31" stroke="#041b31"></path><path d="M204.1 220.1L140.8 197.1L172.1 256Z" fill="#00101c" stroke="#00101c"></path><path d="M204.1 220.1L202.7 198.7L140.8 197.1Z" fill="#ab1777" stroke="#ab1777"></path><path d="M36.4 113.8L22.4 149.7L54.9 123.3Z" fill="#ab1777" stroke="#ab1777"></path><path d="M0 91.8L16.4 105.3L7.4 46.9Z" fill="#ab1777" stroke="#ab1777"></path><path d="M36.4 113.8L0 120.2L22.4 149.7Z" fill="#ff004c" stroke="#ff004c"></path><path d="M202.7 198.7L213.6 195.1L181.7 159.1Z" fill="#102346" stroke="#102346"></path><path d="M256 123.8L205.6 130.2L212.1 138.2Z" fill="#662b74" stroke="#662b74"></path><path d="M193.1 86.9L193.1 28.4L176.7 65.3Z" fill="#452c69" stroke="#452c69"></path><path d="M193.1 28.4L169.7 15.4L172.1 61.3Z" fill="#00101c" stroke="#00101c"></path><path d="M147.2 21.9L130.8 0L107.8 26.4Z" fill="#452c69" stroke="#452c69"></path><path d="M160.7 256L140.8 197.1L136.8 200.6Z" fill="#00101c" stroke="#00101c"></path><path d="M202.7 198.7L204.1 220.1L213.6 195.1Z" fill="#452c69" stroke="#452c69"></path><path d="M213.6 195.1L233.1 187.6L217.1 146.8Z" fill="#041b31" stroke="#041b31"></path><path d="M217.1 146.8L256 123.8L212.1 138.2Z" fill="#282959" stroke="#282959"></path><path d="M241.6 193.6L233.1 187.6L213.6 195.1Z" fill="#662b74" stroke="#662b74"></path><path d="M169.7 15.4L130.8 0L147.2 21.9Z" fill="#ab1777" stroke="#ab1777"></path><path d="M63.9 0L46.3 26.9L65.9 45.4Z" fill="#00101c" stroke="#00101c"></path><path d="M130.8 0L118.3 0L107.8 26.4Z" fill="#e80060" stroke="#e80060"></path><path d="M118.3 0L111.2 0L107.8 26.4Z" fill="#102346" stroke="#102346"></path><path d="M0 97.3L0 120.2L16.4 105.3Z" fill="#ab1777" stroke="#ab1777"></path><path d="M16.4 105.3L0 120.2L36.4 113.8Z" fill="#cb006e" stroke="#cb006e"></path><path d="M5.4 199.6L45.3 174.2L26.4 159.2Z" fill="#cb006e" stroke="#cb006e"></path><path d="M63.9 0L65.9 45.4L107.8 26.4Z" fill="#cb006e" stroke="#cb006e"></path><path d="M65.9 45.4L7.4 46.9L68.9 60.9Z" fill="#041b31" stroke="#041b31"></path><path d="M49.9 193.6L66.9 238.1L90.9 205.7Z" fill="#041b31" stroke="#041b31"></path><path d="M90.9 205.7L123.2 256L136.8 200.6Z" fill="#662b74" stroke="#662b74"></path><path d="M20.4 208.1L66.9 238.1L49.9 193.6Z" fill="#662b74" stroke="#662b74"></path><path d="M20.4 208.1L45.3 174.2L5.4 199.6Z" fill="#892579" stroke="#892579"></path><path d="M0 91.8L0 97.3L16.4 105.3Z" fill="#ff004c" stroke="#ff004c"></path><path d="M256 171.2L256 123.8L217.1 146.8Z" fill="#041b31" stroke="#041b31"></path><path d="M7.4 46.9L16.4 105.3L68.9 60.9Z" fill="#cb006e" stroke="#cb006e"></path><path d="M95.3 256L123.2 256L90.9 205.7Z" fill="#00101c" stroke="#00101c"></path><path d="M256 123.8L256 93.9L205.6 130.2Z" fill="#892579" stroke="#892579"></path><path d="M251.6 209.7L241.6 193.6L213.6 195.1Z" fill="#ab1777" stroke="#ab1777"></path><path d="M233.1 187.6L256 171.2L217.1 146.8Z" fill="#ab1777" stroke="#ab1777"></path><path d="M66.9 238.1L95.3 256L90.9 205.7Z" fill="#cb006e" stroke="#cb006e"></path><path d="M5.4 199.6L26.4 159.2L0 194.7Z" fill="#452c69" stroke="#452c69"></path><path d="M123.2 256L160.7 256L136.8 200.6Z" fill="#cb006e" stroke="#cb006e"></path><path d="M256 191.1L256 188.6L241.6 193.6Z" fill="#e80060" stroke="#e80060"></path><path d="M241.6 193.6L256 171.2L233.1 187.6Z" fill="#ab1777" stroke="#ab1777"></path><path d="M160.7 256L172.1 256L140.8 197.1Z" fill="#102346" stroke="#102346"></path><path d="M111.2 0L77.3 -5.6L107.8 26.4Z" fill="#041b31" stroke="#041b31"></path><path d="M118.3 0L77.3 -5.6L111.2 0Z" fill="#e80060" stroke="#e80060"></path><path d="M130.8 0L77.3 -5.6L118.3 0Z" fill="#041b31" stroke="#041b31"></path><path d="M77.3 -5.6L63.9 0L107.8 26.4Z" fill="#ab1777" stroke="#ab1777"></path><path d="M46.3 26.9L7.4 46.9L65.9 45.4Z" fill="#041b31" stroke="#041b31"></path><path d="M61.3 259.6L74.8 256L66.9 238.1Z" fill="#452c69" stroke="#452c69"></path><path d="M66.9 238.1L74.8 256L95.3 256Z" fill="#892579" stroke="#892579"></path><path d="M95.3 256L145.2 264.6L123.2 256Z" fill="#452c69" stroke="#452c69"></path><path d="M123.2 256L145.2 264.6L160.7 256Z" fill="#452c69" stroke="#452c69"></path><path d="M160.7 256L145.2 264.6L172.1 256Z" fill="#452c69" stroke="#452c69"></path><path d="M61.3 259.6L145.2 264.6L95.3 256Z" fill="#282959" stroke="#282959"></path><path d="M0 194.7L26.4 159.2L22.4 149.7Z" fill="#ab1777" stroke="#ab1777"></path><path d="M41.9 256L61.3 259.6L66.9 238.1Z" fill="#041b31" stroke="#041b31"></path><path d="M0 39.4L7.4 46.9L46.3 26.9Z" fill="#ff004c" stroke="#ff004c"></path><path d="M193.1 28.4L194.7 0L169.7 15.4Z" fill="#662b74" stroke="#662b74"></path><path d="M169.7 15.4L194.7 0L130.8 0Z" fill="#662b74" stroke="#662b74"></path><path d="M130.8 0L194.7 0L77.3 -5.6Z" fill="#041b31" stroke="#041b31"></path><path d="M208.1 0L194.7 0L193.1 28.4Z" fill="#ff004c" stroke="#ff004c"></path><path d="M0 120.2L0 194.7L22.4 149.7Z" fill="#102346" stroke="#102346"></path><path d="M256 191.1L241.6 193.6L256 191.7Z" fill="#041b31" stroke="#041b31"></path><path d="M241.6 193.6L256 188.6L256 171.2Z" fill="#041b31" stroke="#041b31"></path><path d="M256 123.8L263.6 78.8L256 93.9Z" fill="#282959" stroke="#282959"></path><path d="M256 56.3L241.6 35.9L193.1 86.9Z" fill="#041b31" stroke="#041b31"></path><path d="M256 171.2L263.6 78.8L256 123.8Z" fill="#cb006e" stroke="#cb006e"></path><path d="M256 188.6L263.6 78.8L256 171.2Z" fill="#041b31" stroke="#041b31"></path><path d="M145.2 264.6L183.7 258.6L172.1 256Z" fill="#cb006e" stroke="#cb006e"></path><path d="M172.1 256L183.7 258.6L204.1 220.1Z" fill="#102346" stroke="#102346"></path><path d="M256 191.7L241.6 193.6L251.6 209.7Z" fill="#ab1777" stroke="#ab1777"></path><path d="M256 188.6L256 191.1L263.6 78.8Z" fill="#892579" stroke="#892579"></path><path d="M251.6 209.7L213.6 195.1L204.1 220.1Z" fill="#e80060" stroke="#e80060"></path><path d="M256 191.1L256 191.7L263.6 78.8Z" fill="#452c69" stroke="#452c69"></path><path d="M256 56.3L193.1 86.9L256 93.9Z" fill="#662b74" stroke="#662b74"></path><path d="M263.6 78.8L256 56.3L256 93.9Z" fill="#102346" stroke="#102346"></path><path d="M0 39.4L0 47.9L7.4 46.9Z" fill="#102346" stroke="#102346"></path><path d="M7.4 46.9L0 47.9L0 91.8Z" fill="#041b31" stroke="#041b31"></path><path d="M0 194.7L0 204.6L5.4 199.6Z" fill="#452c69" stroke="#452c69"></path><path d="M5.4 199.6L0 204.6L20.4 208.1Z" fill="#00101c" stroke="#00101c"></path><path d="M41.9 256L66.9 238.1L20.4 208.1Z" fill="#00101c" stroke="#00101c"></path><path d="M74.8 256L61.3 259.6L95.3 256Z" fill="#041b31" stroke="#041b31"></path><path d="M77.3 -5.6L55.4 -6.6L63.9 0Z" fill="#102346" stroke="#102346"></path><path d="M63.9 0L55.4 -6.6L46.3 26.9Z" fill="#892579" stroke="#892579"></path><path d="M241.6 35.9L208.1 0L193.1 28.4Z" fill="#cb006e" stroke="#cb006e"></path><path d="M194.7 0L208.1 0L77.3 -5.6Z" fill="#cb006e" stroke="#cb006e"></path><path d="M77.3 -5.6L256 0L55.4 -6.6Z" fill="#cb006e" stroke="#cb006e"></path><path d="M232.6 256L251.6 209.7L204.1 220.1Z" fill="#00101c" stroke="#00101c"></path><path d="M11.4 0L0 39.4L46.3 26.9Z" fill="#282959" stroke="#282959"></path><path d="M263.6 78.8L256 42.4L256 56.3Z" fill="#e80060" stroke="#e80060"></path><path d="M256 56.3L256 42.4L241.6 35.9Z" fill="#ab1777" stroke="#ab1777"></path><path d="M241.6 35.9L238.6 0L208.1 0Z" fill="#ff004c" stroke="#ff004c"></path><path d="M30.4 256L41.9 256L20.4 208.1Z" fill="#00101c" stroke="#00101c"></path><path d="M0 204.6L0 217.1L20.4 208.1Z" fill="#cb006e" stroke="#cb006e"></path><path d="M0 217.1L30.4 256L20.4 208.1Z" fill="#00101c" stroke="#00101c"></path><path d="M41.9 256L30.4 256L61.3 259.6Z" fill="#e80060" stroke="#e80060"></path><path d="M256 0L250.6 14.4L256 42.4Z" fill="#cb006e" stroke="#cb006e"></path><path d="M256 42.4L250.6 14.4L241.6 35.9Z" fill="#662b74" stroke="#662b74"></path><path d="M250.6 14.4L238.6 0L241.6 35.9Z" fill="#cb006e" stroke="#cb006e"></path><path d="M208.1 0L238.6 0L77.3 -5.6Z" fill="#e80060" stroke="#e80060"></path><path d="M145.2 264.6L232.6 256L183.7 258.6Z" fill="#ab1777" stroke="#ab1777"></path><path d="M183.7 258.6L232.6 256L204.1 220.1Z" fill="#662b74" stroke="#662b74"></path><path d="M55.4 -6.6L11.4 0L46.3 26.9Z" fill="#892579" stroke="#892579"></path><path d="M55.4 -6.6L0 0L11.4 0Z" fill="#102346" stroke="#102346"></path><path d="M11.4 0L0 0L0 39.4Z" fill="#892579" stroke="#892579"></path><path d="M263.6 78.8L256 0L256 42.4Z" fill="#ab1777" stroke="#ab1777"></path><path d="M250.6 14.4L256 0L238.6 0Z" fill="#ff004c" stroke="#ff004c"></path><path d="M238.6 0L256 0L77.3 -5.6Z" fill="#cb006e" stroke="#cb006e"></path><path d="M0 217.1L0 256L30.4 256Z" fill="#041b31" stroke="#041b31"></path><path d="M30.4 256L0 256L61.3 259.6Z" fill="#ab1777" stroke="#ab1777"></path><path d="M61.3 259.6L0 256L145.2 264.6Z" fill="#102346" stroke="#102346"></path><path d="M145.2 264.6L256 256L232.6 256Z" fill="#e80060" stroke="#e80060"></path><path d="M232.6 256L256 256L251.6 209.7Z" fill="#282959" stroke="#282959"></path><path d="M251.6 209.7L256 256L256 191.7Z" fill="#041b31" stroke="#041b31"></path><path d="M256 191.7L256 256L263.6 78.8Z" fill="#102346" stroke="#102346"></path></g></svg>