<svg xmlns="http://www.w3.org/2000/svg" id="Layer_1" data-name="Layer 1" viewBox="0 0 122.88 122.88"><defs fill="#35da10"><style>.cls-1{fill:#000000;}.cls-1,.cls-2{fill-rule:evenodd;}</style></defs><title>nuclear</title><path d="M61.44,0A61.46,61.46,0,1,1,18,18,61.21,61.21,0,0,1,61.44,0Z" fill="#35da10"/><path class="cls-1" d="M61.44,6.67A54.77,54.77,0,1,1,6.67,61.44,54.77,54.77,0,0,1,61.44,6.67Z" fill="#35da10"/><path class="cls-2" d="M61.5,53.07a8.95,8.95,0,1,1-9,8.94,8.95,8.95,0,0,1,9-8.94Z" fill="#35da10"/><path class="cls-2" d="M15.17,61.89C16,44.64,23.59,31.13,38.4,21.68L54.68,50.34c-3.85,2.16-6.09,6-6.68,11.55Z" fill="#35da10"/><path class="cls-2" d="M84.63,21.46c14.5,9.38,22.42,22.67,23.2,40.23l-33-.24c0-4.41-2.15-8.27-6.66-11.55L84.63,21.46Z" fill="#35da10"/><path class="cls-2" d="M84.87,101.71c-15.36,7.88-30.84,8.09-46.43,0L55.12,73.27c3.79,2.25,8.24,2.27,13.34,0l16.41,28.43Z" fill="#35da10"/></svg>