<svg xmlns="http://www.w3.org/2000/svg" width="256" height="256"><g fill="none" fill-rule="evenodd"><rect width="256" height="204" fill="#fff" rx="50"/><path fill="#53d4fd" d="M-2 154h259.725c.243 7.32.325 24.702.246 52.146-.08 27.558-22.444 49.856-50.003 49.854H48c-27.614 0-50-22.386-50-50"/><path fill="#000" fill-rule="nonzero" stroke="#000" stroke-width="1.5" d="M253.929 139c-8.924 0-13.594 4.746-17.717 8.932-3.733 3.791-6.957 7.068-13.785 7.068s-10.051-3.276-13.785-7.068c-4.121-4.187-8.793-8.932-17.716-8.932-8.918 0-13.588 4.746-17.707 8.933-3.73 3.791-6.951 7.067-13.772 7.067-6.824 0-10.047-3.276-13.779-7.067-4.12-4.187-8.79-8.933-17.71-8.933-8.919 0-13.587 4.746-17.706 8.933-3.73 3.791-6.952 7.067-13.773 7.067-6.818 0-10.039-3.275-13.767-7.067-4.119-4.188-8.786-8.933-17.703-8.933-8.916 0-13.583 4.746-17.701 8.933-3.73 3.792-6.95 7.067-13.768 7.067-6.818 0-10.039-3.275-13.767-7.067C15.654 143.745 10.987 139 2.07 139-.178 139-2 142.358-2 146.5s1.823 7.5 4.071 7.5c6.819 0 10.04 3.275 13.768 7.067C19.957 165.255 24.624 170 33.54 170c8.916 0 13.584-4.746 17.702-8.933C54.97 157.275 58.192 154 65.01 154s10.039 3.275 13.768 7.067C82.896 165.255 87.563 170 96.48 170c8.918 0 13.586-4.746 17.706-8.933 3.73-3.792 6.951-7.067 13.772-7.067 6.824 0 10.046 3.276 13.778 7.067 4.12 4.187 8.79 8.933 17.711 8.933 8.919 0 13.588-4.746 17.706-8.933 3.73-3.791 6.952-7.067 13.773-7.067 6.828 0 10.052 3.276 13.785 7.068 4.122 4.187 8.793 8.932 17.717 8.932s13.594-4.746 17.716-8.932c3.734-3.791 6.958-7.068 13.785-7.068 1.455 0 2.799-1.43 3.526-3.75.727-2.32.727-5.18 0-7.5s-2.072-3.75-3.526-3.75zm-31.485 49c-6.827 0-10.051-3.276-13.785-7.068-4.121-4.187-8.793-8.932-17.716-8.932-8.919 0-13.588 4.746-17.707 8.933-3.73 3.791-6.951 7.067-13.773 7.067-6.824 0-10.046-3.276-13.778-7.067-4.12-4.187-8.79-8.933-17.711-8.933-8.919 0-13.587 4.746-17.706 8.933-3.73 3.791-6.952 7.067-13.773 7.067-6.818 0-10.039-3.275-13.768-7.067C78.61 176.745 73.942 172 65.025 172c-8.917 0-13.584 4.746-17.702 8.933-3.729 3.792-6.95 7.067-13.767 7.067-2.249 0-4.072 3.358-4.072 7.5 0 4.142 1.823 7.5 4.072 7.5 8.916 0 13.583-4.746 17.701-8.933 3.73-3.792 6.95-7.067 13.768-7.067 6.818 0 10.039 3.275 13.768 7.067C82.91 198.255 87.578 203 96.495 203c8.918 0 13.587-4.746 17.706-8.933 3.73-3.792 6.952-7.067 13.773-7.067 6.824 0 10.046 3.276 13.778 7.067 4.12 4.189 8.79 8.933 17.711 8.933 8.918 0 13.588-4.746 17.707-8.933 3.73-3.791 6.951-7.067 13.773-7.067 6.827 0 10.051 3.276 13.785 7.068 4.121 4.187 8.793 8.932 17.716 8.932 2.249 0 4.072-3.358 4.072-7.5 0-4.142-1.823-7.5-4.072-7.5z"/></g></svg>